<svg id="logo" alt="ScribeBot Logo" xmlns="http://www.w3.org/2000/svg" version="1.0" width="150pt"
            height="144pt" viewBox="0 0 300.000000 288.000000" preserveAspectRatio="xMidYMid meet">
            <g transform="translate(0.000000,288.000000) scale(0.050000,-0.050000)" fill="#000000" stroke="none">
                <path
                    d="M2426 5698 c-25 -9 -50 -38 -57 -65 -11 -44 -18 -47 -84 -32 -50 11 -97 7 -154 -13 -44 -17 -151 -48 -237 -69 -181 -45 -336 -118 -524 -247 -74 -51 -142 -92 -151 -92 -44 0 -350 -255 -449 -374 -326 -392 -560 -810 -585 -1046 -6 -60 -27 -141 -46 -180 -79 -157 -90 -846 -18 -1170 116 -522 230 -770 549 -1198 306 -409 980 -909 1363 -1010 45 -12 94 -36 108 -53 68 -82 134 -94 621 -111 556 -20 1038 0 1129 47 33 17 96 38 140 46 87 16 374 126 609 235 653 301 1231 1126 1298 1854 30 327 -5 858 -71 1064 -18 57 -24 121 -16 165 19 100 1 152 -91 269 -72 90 -79 110 -68 178 18 118 -51 258 -199 400 -111 107 -188 222 -221 336 -17 55 -473 461 -591 525 -50 27 -109 65 -131 85 -22 19 -85 50 -140 69 -55 19 -125 55 -157 81 -31 27 -64 48 -74 48 -10 0 -61 28 -113 61 -86 55 -107 60 -199 49 -97 -12 -103 -10 -115 39 -25 101 -57 106 -692 116 -324 5 -610 2 -634 -7z m1218 -114 c39 -39 124 -1087 90 -1108 -12 -7 -63 -9 -113 -5 -50 5 -160 14 -245 20 -148 12 -154 14 -160 66 -9 78 -158 81 -176 3 -11 -48 -18 -50 -201 -56 -286 -9 -314 0 -328 102 -16 118 -43 995 -31 1008 19 20 1143 -9 1164 -30z m-1348 -75 c84 -60 35 -209 -69 -209 -61 0 -127 67 -127 129 0 51 65 111 120 111 17 0 51 -14 76 -31z m1707 -62 c87 -79 0 -210 -111 -168 -120 46 -111 201 12 201 35 0 79 -15 99 -33z m-2023 -27 c0 -22 -13 -40 -29 -40 -42 0 -61 41 -29 62 43 27 58 21 58 -22z m75 -157 c429 -219 360 -747 -111 -844 -581 -121 -882 668 -333 872 108 41 338 26 444 -28z m2414 -98 c20 -84 99 -133 172 -108 73 26 152 -77 87 -113 -49 -27 10 -154 81 -172 73 -18 68 -125 -5 -117 -68 7 -116 -108 -68 -162 32 -35 31 -39 -15 -76 -44 -36 -52 -37 -72 -9 -48 65 -241 22 -219 -48 15 -48 -27 -70 -100 -52 -36 9 -50 26 -50 62 0 61 -131 138 -184 108 -57 -32 -158 72 -108 111 57 45 5 178 -74 187 -86 10 -80 124 6 124 88 0 146 118 90 180 -41 46 -28 68 53 87 34 8 61 2 77 -17 46 -56 180 -32 180 32 0 68 133 53 149 -17z m-585 -27 c-9 -84 -44 -92 -44 -10 0 52 8 73 25 66 14 -4 22 -30 19 -56z m-2644 -96 c0 -28 -57 -66 -79 -53 -41 25 -22 71 29 71 28 0 50 -8 50 -18z m-89 -151 c59 -60 62 -98 9 -151 -82 -82 -261 0 -229 105 30 102 140 125 220 46z m-271 -201 c0 -17 -18 -30 -40 -30 -22 0 -40 13 -40 30 0 17 18 30 40 30 22 0 40 -13 40 -30z m4276 -21 c49 -34 60 -125 20 -165 -31 -31 -120 -31 -160 1 -121 95 13 253 140 164z m-3999 -138 c114 -40 199 -107 254 -201 265 -451 -389 -829 -772 -446 -323 323 63 807 518 647z m1236 -42 c7 -18 2 -42 -9 -53 -29 -29 -86 16 -71 55 15 39 65 37 80 -2z m1543 -104 c-10 -52 -76 -58 -76 -6 0 28 13 41 41 41 29 0 40 -11 35 -35z m-469 -35 c223 -61 485 -204 638 -347 l56 -51 -46 -25 c-61 -35 -53 -37 -176 56 -610 462 -1580 374 -2036 -186 -491 -603 -269 -1559 463 -2002 133 -81 144 -93 150 -162 l7 -75 -74 31 c-426 178 -820 663 -921 1131 -175 820 307 1494 1192 1668 106 20 631 -6 747 -38z m1628 15 c5 -14 -2 -25 -14 -25 -13 0 -179 -76 -369 -170 -191 -93 -367 -170 -393 -170 l-46 0 46 49 c40 42 146 98 581 306 96 46 182 51 195 10z m-3264 -74 c57 -57 62 -103 16 -154 -71 -79 -227 -22 -227 83 0 112 127 155 211 71z m244 4 c-13 -38 -75 -43 -75 -6 0 18 17 31 42 31 24 0 38 -10 33 -25z m2058 -25 c15 -49 -30 -82 -65 -47 -18 18 -26 44 -19 56 17 27 75 20 84 -9z m1237 -2 c115 -75 233 -330 180 -389 -56 -61 -76 -49 -146 86 -35 69 -96 172 -135 230 l-70 105 61 0 c34 0 83 -14 110 -32z m-152 -179 c47 -83 79 -158 71 -165 -8 -8 -19 -2 -24 12 -58 163 -149 173 -413 44 -272 -132 -376 -220 -327 -274 55 -61 0 -136 -69 -94 -31 20 -158 232 -146 245 17 18 776 379 801 381 12 1 60 -66 107 -149z m-932 41 c-7 -34 -60 -34 -73 0 -10 25 -2 31 32 26 25 -3 43 -15 41 -26z m-909 -52 c160 -41 359 -131 453 -207 l60 -48 -86 -39 -86 -38 -127 67 c-816 433 -1769 -168 -1572 -990 25 -101 24 -105 -41 -206 l-66 -103 -25 118 c-14 65 -35 162 -46 216 -171 812 635 1457 1536 1230z m1751 -111 c16 -40 40 -24 -202 -137 -337 -157 -369 -90 -36 78 200 101 220 106 238 59z m-4652 -88 c52 -48 56 -94 13 -155 -63 -89 -229 -37 -229 73 0 113 130 162 216 82z m3817 -194 c156 -255 175 -304 133 -336 -52 -40 -61 -36 -98 36 -19 36 -79 136 -134 223 -96 150 -99 159 -64 185 61 44 77 34 163 -108z m-1059 95 c207 -48 311 -101 276 -140 -32 -35 -37 -35 -147 16 -380 175 -885 -14 -1062 -397 -36 -78 -75 -138 -88 -133 -115 38 123 420 342 548 192 112 466 155 679 106z m2305 -92 c-34 -41 -188 -117 -499 -248 -137 -58 -308 -135 -380 -171 -343 -171 -720 -309 -720 -262 0 13 645 333 672 333 30 0 283 108 578 248 278 131 404 167 349 100z m-4084 -23 c11 -33 -52 -56 -79 -29 -11 11 -14 31 -6 43 17 29 74 19 85 -14z m2618 -49 c76 -121 72 -131 -83 -199 -176 -78 -620 -282 -784 -361 -147 -70 -153 -70 -215 35 l-49 81 514 263 c591 303 548 290 617 181z m1666 -10 c53 -67 46 -121 -20 -170 -114 -85 -259 84 -159 184 56 56 129 51 179 -14z m-2628 -67 c15 -25 -26 -79 -61 -79 -30 0 -56 55 -39 82 15 25 84 23 100 -3z m-1772 -18 c38 -24 32 -681 -6 -706 -63 -40 -193 11 -193 76 0 14 -14 30 -30 36 -25 10 -29 49 -24 217 l6 206 84 11 c75 11 141 58 143 104 1 21 -5 20 -119 -25 -169 -67 -774 -60 -839 9 -53 57 -89 48 -70 -16 17 -56 65 -93 123 -93 42 0 46 -9 46 -107 0 -194 -21 -293 -62 -293 -37 0 -67 66 -54 119 3 14 -4 30 -16 34 -23 9 -48 -78 -48 -162 l0 -45 395 9 c423 9 489 -3 458 -85 -17 -43 -906 -34 -933 9 -19 32 1 644 23 686 21 39 1056 54 1116 16z m1511 -59 c0 -44 -67 -78 -89 -44 -9 16 -12 41 -7 56 14 36 96 25 96 -12z m-192 -90 c29 -35 -21 -92 -79 -92 -47 0 -51 45 -8 89 39 38 57 39 87 3z m2698 -54 c7 -64 108 -104 181 -71 70 31 173 -75 114 -118 -58 -43 16 -141 134 -177 67 -21 46 -132 -25 -132 -67 0 -85 -38 -75 -167 7 -100 -42 -140 -104 -84 -52 47 -167 22 -178 -40 -15 -83 -127 -91 -148 -11 -17 66 -128 110 -200 80 -78 -32 -124 17 -106 115 19 100 -17 167 -89 167 -46 0 -61 9 -63 40 -2 22 -4 51 -5 65 -1 16 20 23 60 19 90 -9 153 140 85 203 -74 69 31 123 120 61 64 -45 163 -5 163 66 0 75 127 60 136 -16z m-4356 -168 l0 -170 -230 0 -230 0 0 170 0 170 230 0 230 0 0 -170z m1515 45 c-13 -38 -75 -43 -75 -6 0 18 17 31 42 31 24 0 38 -10 33 -25z m2123 -124 c112 -447 -104 -1029 -486 -1309 -200 -146 -644 -337 -686 -294 -42 41 33 138 134 173 619 215 949 681 914 1291 -10 182 -8 207 22 214 70 19 80 12 102 -75z m-1742 -6 c116 -163 184 -320 150 -348 -19 -16 -35 -19 -39 -7 -4 11 -56 101 -115 200 -75 124 -101 184 -85 195 37 23 48 18 89 -40z m-98 -163 c27 -56 27 -67 1 -85 -24 -17 -24 -19 4 -10 19 6 49 -7 68 -29 42 -46 27 -82 -89 -211 l-74 -84 -239 15 c-132 8 -279 11 -327 6 l-89 -9 120 148 c66 81 148 188 182 239 l62 92 176 -4 175 -4 30 -64z m1522 -292 c-165 -860 -1416 -1147 -2095 -481 -173 170 -178 191 -50 191 88 0 105 -8 208 -106 603 -570 1706 -231 1771 544 11 137 14 142 64 142 29 0 66 9 82 20 41 26 52 -144 20 -310z m-328 175 c-5 -19 -16 -62 -24 -95 -76 -329 -463 -611 -837 -610 -183 1 -592 136 -591 195 2 60 38 59 170 -7 324 -159 712 -114 958 112 94 87 212 293 212 370 0 56 15 70 75 70 36 0 45 -8 37 -35z m-332 -104 c0 -46 -36 -73 -62 -47 -26 26 -1 86 34 86 15 0 28 -17 28 -39z m-3264 -22 c58 -54 55 -107 -9 -158 -92 -72 -207 -29 -207 79 0 114 128 161 216 79z m963 12 c50 -60 -26 -130 -107 -99 -32 12 -44 89 -19 115 24 23 101 14 126 -16z m-359 -121 c0 -60 101 -112 238 -122 97 -7 139 -44 92 -80 -60 -45 -13 -188 62 -188 24 0 49 -11 54 -25 15 -42 -23 -92 -62 -82 -37 10 -104 -136 -69 -148 64 -23 72 -42 38 -93 -29 -44 -40 -48 -71 -28 -52 32 -152 -30 -131 -80 35 -86 34 -104 -6 -104 -22 0 -52 17 -68 37 -45 62 -205 36 -188 -31 11 -44 7 -48 -43 -42 -43 5 -57 18 -62 57 -4 38 -24 58 -71 75 -88 32 -233 141 -233 176 0 16 -20 28 -48 28 -65 0 -84 58 -31 95 61 43 46 133 -24 141 -74 9 -56 84 20 85 65 0 185 173 140 201 -20 12 -17 25 12 57 45 49 83 52 107 8 28 -49 191 8 200 70 11 69 144 63 144 -7z m3901 -21 c21 -25 20 -36 -4 -60 -38 -39 -110 7 -91 58 16 42 61 42 95 2z m-1401 -29 c0 -29 -13 -40 -50 -40 -54 0 -56 2 -38 48 18 47 88 41 88 -8z m-406 -62 c28 -28 12 -78 -25 -78 -35 0 -55 35 -41 71 13 35 36 37 66 7z m242 -25 c8 -40 -50 -67 -80 -37 -16 16 -15 31 4 54 31 37 67 30 76 -17z m2472 -55 c73 -57 68 -172 -9 -215 -135 -76 -273 83 -178 204 51 64 115 68 187 11z m-5518 -18 c0 -16 -16 -32 -35 -36 -25 -5 -35 6 -35 36 0 30 10 41 35 36 19 -4 35 -20 35 -36z m4945 -20 c14 0 25 -25 25 -58 0 -79 119 -158 189 -126 66 30 156 -81 93 -115 -55 -29 -18 -176 51 -202 67 -26 67 -119 -1 -119 -52 0 -105 -95 -96 -171 9 -68 -92 -149 -126 -102 -41 56 -230 8 -230 -58 0 -63 -135 -36 -150 30 -16 75 -126 148 -195 130 -61 -15 -115 58 -115 155 -1 102 -33 217 -68 243 -41 30 -20 113 28 113 52 0 169 139 142 166 -34 34 -27 51 36 83 51 26 61 26 82 0 41 -48 201 -39 215 13 8 30 21 38 53 30 23 -6 53 -12 67 -12z m-3569 -205 c5 -14 5 -82 -1 -152 -8 -94 -4 -131 16 -143 22 -14 22 -23 0 -48 -42 -51 -63 -15 -49 86 12 93 11 96 -60 138 -74 44 -81 57 -60 112 15 39 140 44 154 7z m4130 -122 c4 -19 -6 -33 -25 -33 -18 0 -31 17 -31 42 0 48 47 42 56 -9z m-4259 -162 c4 -19 -3 -45 -15 -57 -33 -33 -69 12 -52 65 15 50 57 45 67 -8z m333 -31 c0 -43 -78 -37 -87 7 -5 28 4 35 40 30 26 -4 47 -20 47 -37z m2578 8 c40 -15 41 -75 3 -107 -38 -32 -71 -10 -71 47 0 65 16 80 68 60z m-2580 -205 c269 -119 375 -455 213 -679 -264 -364 -890 -182 -884 257 6 364 334 571 671 422z m1088 15 c118 -11 251 -15 296 -8 l82 12 13 -124 c7 -68 13 -209 13 -313 l0 -190 -215 12 c-118 6 -280 12 -360 12 l-145 1 0 322 0 322 51 -12 c28 -7 147 -22 265 -34z m1544 -120 c0 -59 30 -78 123 -78 94 0 140 -33 125 -91 -11 -42 -2 -53 58 -79 76 -31 108 -89 79 -141 -28 -50 -6 -144 37 -155 60 -16 50 -94 -12 -94 -42 0 -51 -12 -62 -79 -9 -53 -25 -84 -51 -92 -27 -9 -34 -24 -25 -59 16 -63 -61 -110 -106 -64 -44 43 -146 1 -146 -60 0 -65 -150 -69 -171 -4 -16 51 -138 105 -201 89 -39 -10 -52 1 -85 77 -28 63 -53 91 -86 95 -42 6 -46 16 -41 90 6 74 1 85 -40 90 -59 9 -69 63 -20 110 54 53 69 129 31 157 -48 35 -17 106 49 114 43 5 54 17 54 56 0 88 25 106 132 92 119 -16 191 0 203 46 17 64 155 46 155 -20z m-3804 -45 c4 -19 -6 -33 -23 -33 -38 0 -60 33 -42 61 18 29 58 13 65 -28z m464 31 c0 -21 -43 -64 -64 -64 -9 0 -16 18 -16 40 0 27 13 40 40 40 22 0 40 -7 40 -16z m1152 -54 c0 -33 8 -77 17 -97 11 -24 8 -43 -10 -54 -30 -18 -101 149 -83 197 18 50 74 15 76 -46z m-1318 -13 c92 -87 38 -217 -91 -217 -90 0 -143 48 -143 132 0 119 143 170 234 85z m2762 -123 c-8 -78 -49 -92 -79 -26 -18 39 -17 58 2 80 39 47 84 16 77 -54z m1694 -35 c0 -16 -16 -31 -35 -35 -34 -7 -49 36 -21 63 21 21 56 3 56 -28z m-190 -69 c113 -58 117 -213 9 -265 -169 -80 -319 141 -174 255 60 48 89 50 165 10z m-2720 -158 c0 -136 -19 -131 505 -132 l415 0 0 100 c0 107 18 119 133 88 135 -36 304 -800 197 -888 -62 -51 -1485 -42 -1522 10 -57 77 -37 470 35 689 34 105 65 202 69 216 4 15 40 25 87 25 l81 0 0 -108z m-1484 11 c5 -32 -3 -43 -35 -43 -26 0 -41 13 -41 37 0 76 65 81 76 6z m1060 -360 c5 -28 -4 -43 -23 -43 -39 0 -60 34 -45 73 17 42 61 23 68 -30z m-381 -149 c-5 -13 -28 -27 -52 -30 -51 -8 -83 51 -42 77 33 20 104 -15 94 -47z m345 6 c48 -48 50 -77 9 -136 -56 -79 -209 -28 -209 69 0 96 128 139 200 67z m2043 -80 c121 -121 -15 -265 -150 -159 -60 47 -68 109 -22 175 43 60 101 55 172 -16z" />
                <path
                    d="M2572 5508 c-11 -29 23 -778 38 -843 10 -42 21 -45 165 -45 200 1 256 32 78 43 -72 5 -137 14 -143 21 -14 14 -55 738 -42 750 12 13 791 14 804 1 12 -12 49 -448 54 -645 l4 -140 -130 7 c-191 10 -126 -29 75 -45 121 -9 165 -7 165 11 0 122 -68 835 -83 862 -16 30 -50 35 -223 37 -112 0 -327 3 -478 5 -200 4 -277 -2 -284 -19z" />
                <path
                    d="M3020 5386 c-211 -77 -118 -369 107 -333 77 13 173 102 173 162 0 89 -189 204 -280 171z m140 -86 c74 -74 41 -180 -55 -180 -116 0 -166 101 -92 183 43 48 97 47 147 -3z" />
                <path d="M3043 5227 c4 -21 28 -40 54 -44 36 -5 45 2 40 30 -4 21 -28 40 -54 44 -36 5 -45 -2 -40 -30z" />
                <path d="M2768 4962 c-33 -34 33 -42 332 -42 189 0 340 8 340 18 0 31 -642 53 -672 24z" />
                <path d="M2780 4843 c0 -19 591 -45 634 -29 82 32 -11 46 -304 46 -181 0 -330 -8 -330 -17z" />
                <path d="M2820 4740 c75 -24 600 -24 600 0 0 13 -120 19 -325 18 -194 -1 -305 -8 -275 -18z" />
                <path d="M2180 5420 c0 -25 13 -40 37 -40 47 0 63 17 49 52 -16 44 -86 35 -86 -12z" />
                <path d="M3875 5409 c-23 -24 9 -69 49 -69 26 0 37 11 32 35 -7 35 -58 57 -81 34z" />
                <path
                    d="M1646 5218 c-254 -74 -325 -409 -126 -602 250 -242 638 -152 722 167 76 287 -260 532 -596 435z m270 -59 c382 -82 369 -526 -18 -599 -314 -60 -529 216 -372 477 71 119 207 161 390 122z" />
                <path
                    d="M1710 5091 c-179 -65 -228 -276 -95 -401 126 -118 310 -109 439 20 186 186 -77 478 -344 381z m235 -111 c131 -102 63 -280 -108 -280 -170 0 -260 160 -154 274 57 60 190 63 262 6z" />
                <path d="M1764 4916 c-57 -57 -5 -145 78 -133 75 12 96 73 41 118 -55 45 -85 49 -119 15z" />
                <path
                    d="M4168 5003 c-77 -48 -117 -141 -101 -238 50 -307 547 -368 587 -72 32 241 -279 440 -486 310z m292 -102 c141 -99 122 -284 -32 -313 -188 -35 -337 159 -228 298 63 80 161 85 260 15z" />
                <path
                    d="M4316 4846 c-77 -20 -59 -150 25 -176 88 -28 135 91 62 157 -20 18 -40 32 -45 31 -4 -2 -23 -7 -42 -12z" />
                <path d="M1020 4822 c0 -44 42 -66 80 -42 37 23 9 80 -39 80 -27 0 -41 -13 -41 -38z" />
                <path d="M5044 4585 c10 -52 76 -58 76 -6 0 28 -13 41 -41 41 -29 0 -40 -11 -35 -35z" />
                <path
                    d="M863 4460 c-80 -19 -178 -107 -215 -194 -145 -338 356 -621 624 -353 259 259 -24 638 -409 547z m254 -138 c204 -104 143 -376 -88 -396 -240 -21 -380 197 -233 361 72 80 203 94 321 35z" />
                <path d="M944 4209 c-58 -41 -56 -100 6 -141 111 -73 233 53 131 135 -55 45 -79 46 -137 6z" />
                <path d="M1700 4219 c0 -47 53 -74 84 -43 16 16 15 31 -3 53 -37 44 -81 38 -81 -10z" />
                <path d="M330 3819 c-21 -32 40 -87 80 -72 18 7 30 29 26 48 -7 41 -85 58 -106 24z" />
                <path d="M5610 3559 c-8 -12 -5 -32 6 -43 27 -27 90 -4 79 29 -11 33 -68 43 -85 14z" />
                <path
                    d="M1200 3035 c0 -36 -9 -78 -19 -94 -21 -34 7 -60 64 -61 41 0 48 71 8 86 -17 7 -23 32 -18 72 6 38 1 62 -13 62 -12 0 -22 -29 -22 -65z" />
                <path
                    d="M5181 3174 c-155 -53 -213 -269 -107 -396 152 -179 407 -173 495 12 102 216 -151 466 -388 384z m167 -102 c171 -71 180 -278 14 -318 -178 -44 -308 195 -167 306 60 48 67 48 153 12z" />
                <path d="M5232 2947 c-20 -50 51 -115 107 -97 33 10 42 27 37 67 -8 66 -121 90 -144 30z" />
                <path d="M639 3188 c-31 -37 -5 -94 47 -104 44 -9 71 93 32 118 -39 24 -49 23 -79 -14z" />
                <path d="M823 3202 c-41 -26 -21 -112 27 -112 31 0 40 13 40 58 0 63 -24 82 -67 54z" />
                <path
                    d="M2488 2738 c-21 -23 -100 -73 -175 -111 -75 -38 -133 -74 -127 -80 12 -12 210 86 257 127 22 19 37 22 46 7 21 -33 105 -25 119 12 30 77 -60 111 -120 45z" />
                <path d="M253 2624 c-7 -10 0 -34 15 -54 32 -45 98 -26 88 25 -7 37 -85 59 -103 29z" />
                <path
                    d="M750 2382 c-246 -113 -281 -412 -65 -565 90 -65 324 -68 409 -5 333 247 33 744 -344 570z m240 -111 c210 -88 132 -391 -100 -391 -180 0 -277 190 -167 329 71 91 153 110 267 62z" />
                <path d="M813 2163 c-41 -45 -43 -130 -3 -163 71 -59 210 3 210 92 0 88 -146 138 -207 71z" />
                <path d="M5667 2289 c-16 -41 43 -92 86 -75 16 6 26 30 23 54 -8 54 -91 70 -109 21z" />
                <path
                    d="M4928 2142 c-312 -142 -149 -622 211 -622 387 0 422 496 43 629 -112 40 -154 39 -254 -7z m288 -70 c260 -135 195 -492 -90 -492 -155 0 -286 136 -286 297 0 177 206 284 376 195z" />
                <path
                    d="M5040 2006 c-202 -74 -132 -346 89 -346 183 0 233 231 71 327 -57 33 -105 39 -160 19z m129 -117 c38 -39 39 -70 5 -117 -58 -79 -189 9 -153 103 21 54 100 61 148 14z" />
                <path
                    d="M1520 1519 c-207 -88 -276 -403 -123 -566 282 -301 790 21 605 383 -79 155 -326 249 -482 183z m253 -98 c251 -113 202 -459 -69 -495 -298 -40 -412 385 -136 505 82 36 107 35 205 -10z" />
                <path d="M1573 1279 c-67 -53 -70 -136 -7 -196 61 -57 136 -55 201 6 144 133 -39 311 -194 190z" />
                <path d="M2760 1483 c0 -31 81 -43 290 -41 120 0 184 7 160 16 -62 25 -450 47 -450 25z" />
                <path d="M2760 1359 c0 -25 454 -25 469 0 8 12 -80 19 -228 20 -142 0 -241 -8 -241 -20z" />
                <path
                    d="M2760 1278 c0 -10 11 -18 25 -19 14 0 126 -5 250 -11 149 -6 225 -3 225 11 0 23 -18 25 -305 32 -107 2 -195 -3 -195 -13z" />
                <path d="M2765 1178 c-53 -18 104 -38 310 -38 102 0 185 8 185 19 0 21 -443 38 -495 19z" />
                <path
                    d="M4177 1341 c-219 -119 -201 -486 31 -630 337 -209 684 99 507 449 -96 190 -359 278 -538 181z m356 -92 c321 -188 90 -655 -245 -497 -193 92 -248 338 -109 487 77 82 224 87 354 10z" />
                <path
                    d="M4244 1174 c-143 -152 1 -404 208 -365 127 24 184 164 118 292 -61 117 -245 159 -326 73z m231 -89 c32 -41 32 -130 1 -161 -63 -63 -196 -1 -196 93 0 112 128 156 195 68z" />
                <path d="M4352 1043 c-21 -33 10 -83 52 -83 29 0 37 11 32 45 -6 46 -63 72 -84 38z" />
                <path d="M840 1333 c0 -55 69 -92 104 -57 36 36 8 94 -49 100 -47 6 -55 -1 -55 -43z" />
                <path
                    d="M5111 1109 c-41 -42 -39 -75 6 -116 69 -62 163 -30 163 57 0 86 -105 122 -169 59z m139 -59 c0 -51 -9 -61 -55 -66 -71 -8 -93 43 -44 97 52 57 99 42 99 -31z" />
                <path
                    d="M2560 731 c-9 -23 -8 -50 2 -60 38 -40 17 -71 -48 -71 -88 0 -150 -47 -165 -126 -36 -193 130 -249 193 -64 53 152 106 141 114 -25 l6 -125 358 0 c334 0 360 3 379 39 32 59 25 90 -24 111 -50 22 -64 65 -36 110 30 46 91 -2 91 -72 0 -87 80 -94 97 -9 9 44 23 61 53 61 57 0 71 -50 30 -112 -39 -60 -17 -99 46 -79 41 13 60 81 48 167 -10 65 -117 127 -195 112 -82 -15 -132 37 -83 87 30 30 36 30 72 -3 31 -28 47 -31 80 -13 75 40 29 105 -71 98 -31 -2 -76 2 -99 10 -24 8 -67 5 -97 -7 -30 -11 -65 -13 -78 -5 -61 39 -657 18 -673 -24z m176 -56 c-6 -67 -46 -91 -110 -66 -27 10 -23 22 25 72 73 76 93 75 85 -6z m194 -33 c0 -58 -29 -72 -77 -37 -47 35 -23 99 35 91 29 -4 42 -20 42 -54z m204 25 c19 -50 -53 -97 -91 -59 -16 16 -23 43 -16 60 16 42 91 41 107 -1z m174 1 c20 -53 14 -88 -17 -88 -42 0 -91 57 -78 91 15 39 80 37 95 -3z m-469 -137 c18 -21 18 -39 1 -71 -27 -50 -86 -46 -96 6 -16 83 45 125 95 65z m197 -49 c-8 -70 -83 -74 -93 -4 -7 52 27 85 71 68 17 -7 26 -33 22 -64z m200 0 c-5 -40 -17 -52 -56 -52 -61 0 -80 66 -30 102 50 37 93 12 86 -50z m-716 -21 c0 -45 -17 -61 -52 -47 -28 10 -38 69 -16 91 21 22 68 -8 68 -44z m820 -110 c0 -43 -46 -50 -320 -49 -288 0 -333 8 -299 50 35 42 619 41 619 -1z" />
                <path d="M2411 727 c-7 -19 -3 -43 9 -55 27 -27 87 8 96 55 9 45 -87 45 -105 0z" />
                <path d="M1952 503 c-6 -9 2 -34 17 -55 33 -45 85 -12 64 41 -13 33 -64 42 -81 14z" />
                <path d="M4000 402 c0 -42 57 -73 84 -46 27 27 -4 84 -46 84 -24 0 -38 -14 -38 -38z" />
            </g>
        </svg>